<svg xmlns="http://www.w3.org/2000/svg" width="960" height="540" viewBox="0 0 960 540">
<rect width="100%" height="100%" fill="white"/>
<text x="480.0" y="32" text-anchor="middle" font-family="sans-serif" font-size="22">Chronological CV mean MAE</text>
<line x1="80" y1="60" x2="80" y2="440" stroke="#222"/>
<line x1="80" y1="440" x2="930" y2="440" stroke="#222"/>
<rect x="101.2" y="94.5" width="78.9" height="345.5" fill="#4c78a8"/>
<text x="140.7" y="87.5" text-anchor="middle" font-family="sans-serif" font-size="12">0.5954</text>
<text x="140.7" y="465" text-anchor="middle" font-family="sans-serif" font-size="12">E00</text>
<rect x="222.7" y="126.5" width="78.9" height="313.5" fill="#f58518"/>
<text x="262.1" y="119.5" text-anchor="middle" font-family="sans-serif" font-size="12">0.5403</text>
<text x="262.1" y="465" text-anchor="middle" font-family="sans-serif" font-size="12">E10</text>
<rect x="344.1" y="175.3" width="78.9" height="264.7" fill="#54a24b"/>
<text x="383.6" y="168.3" text-anchor="middle" font-family="sans-serif" font-size="12">0.4563</text>
<text x="383.6" y="465" text-anchor="middle" font-family="sans-serif" font-size="12">E11</text>
<rect x="465.5" y="174.6" width="78.9" height="265.4" fill="#e45756"/>
<text x="505.0" y="167.6" text-anchor="middle" font-family="sans-serif" font-size="12">0.4575</text>
<text x="505.0" y="465" text-anchor="middle" font-family="sans-serif" font-size="12">E12</text>
<rect x="587.0" y="129.5" width="78.9" height="310.5" fill="#72b7b2"/>
<text x="626.4" y="122.5" text-anchor="middle" font-family="sans-serif" font-size="12">0.5352</text>
<text x="626.4" y="465" text-anchor="middle" font-family="sans-serif" font-size="12">E20</text>
<rect x="708.4" y="173.9" width="78.9" height="266.1" fill="#b279a2"/>
<text x="747.9" y="166.9" text-anchor="middle" font-family="sans-serif" font-size="12">0.4586</text>
<text x="747.9" y="465" text-anchor="middle" font-family="sans-serif" font-size="12">E21</text>
<rect x="829.8" y="175.0" width="78.9" height="265.0" fill="#ff9da6"/>
<text x="869.3" y="168.0" text-anchor="middle" font-family="sans-serif" font-size="12">0.4567</text>
<text x="869.3" y="465" text-anchor="middle" font-family="sans-serif" font-size="12">E22</text>
</svg>
