<svg xmlns="http://www.w3.org/2000/svg" width="960" height="540" viewBox="0 0 960 540">
<rect width="100%" height="100%" fill="white"/>
<text x="480.0" y="32" text-anchor="middle" font-family="sans-serif" font-size="22">Final-test MAE by forecast horizon</text>
<line x1="80" y1="60" x2="80" y2="470" stroke="#222"/>
<line x1="80" y1="470" x2="930" y2="470" stroke="#222"/>
<text x="20" y="265.0" transform="rotate(-90 20 265.0)" font-family="sans-serif" font-size="14">MAE, kWh</text>
<line x1="80" y1="470.0" x2="930" y2="470.0" stroke="#ddd"/>
<text x="70" y="475.0" text-anchor="end" font-family="sans-serif" font-size="12">0.000</text>
<line x1="80" y1="388.0" x2="930" y2="388.0" stroke="#ddd"/>
<text x="70" y="393.0" text-anchor="end" font-family="sans-serif" font-size="12">0.111</text>
<line x1="80" y1="306.0" x2="930" y2="306.0" stroke="#ddd"/>
<text x="70" y="311.0" text-anchor="end" font-family="sans-serif" font-size="12">0.222</text>
<line x1="80" y1="224.0" x2="930" y2="224.0" stroke="#ddd"/>
<text x="70" y="229.0" text-anchor="end" font-family="sans-serif" font-size="12">0.333</text>
<line x1="80" y1="142.0" x2="930" y2="142.0" stroke="#ddd"/>
<text x="70" y="147.0" text-anchor="end" font-family="sans-serif" font-size="12">0.444</text>
<line x1="80" y1="60.0" x2="930" y2="60.0" stroke="#ddd"/>
<text x="70" y="65.0" text-anchor="end" font-family="sans-serif" font-size="12">0.556</text>
<polyline fill="none" stroke="#1f77b4" stroke-width="2.5" points="80.0,169.1 117.0,155.2 153.9,149.4 190.9,147.4 227.8,145.9 264.8,147.1 301.7,146.2 338.7,144.3 375.7,144.5 412.6,143.2 449.6,143.3 486.5,143.4 523.5,139.0 560.4,142.1 597.4,143.3 634.3,143.1 671.3,144.5 708.3,143.8 745.2,141.8 782.2,143.6 819.1,145.9 856.1,148.4 893.0,146.5 930.0,143.9"/>
<line x1="80" y1="515" x2="108" y2="515" stroke="#1f77b4" stroke-width="3"/>
<text x="115" y="520" font-family="sans-serif" font-size="13">Selected W0</text>
<polyline fill="none" stroke="#d62728" stroke-width="2.5" points="80.0,61.0 117.0,60.6 153.9,60.2 190.9,60.0 227.8,60.2 264.8,60.4 301.7,60.4 338.7,60.6 375.7,60.3 412.6,60.1 449.6,60.0 486.5,60.3 523.5,60.3 560.4,60.3 597.4,60.3 634.3,60.3 671.3,60.2 708.3,60.1 745.2,60.5 782.2,60.7 819.1,60.8 856.1,60.8 893.0,60.7 930.0,60.5"/>
<line x1="290" y1="515" x2="318" y2="515" stroke="#d62728" stroke-width="3"/>
<text x="325" y="520" font-family="sans-serif" font-size="13">Seasonal Naive-24</text>
<polyline fill="none" stroke="#2ca02c" stroke-width="2.5" points="80.0,169.0 117.0,155.4 153.9,149.3 190.9,145.1 227.8,146.3 264.8,146.0 301.7,146.1 338.7,144.3 375.7,145.9 412.6,143.7 449.6,144.2 486.5,143.3 523.5,139.7 560.4,141.4 597.4,142.5 634.3,141.9 671.3,143.6 708.3,143.4 745.2,141.4 782.2,144.5 819.1,145.3 856.1,145.7 893.0,145.5 930.0,141.2"/>
<line x1="500" y1="515" x2="528" y2="515" stroke="#2ca02c" stroke-width="3"/>
<text x="535" y="520" font-family="sans-serif" font-size="13">Selected-family W1</text>
</svg>
